<?xml version="1.0" encoding="UTF-8"?><svg id="Text" xmlns="http://www.w3.org/2000/svg" viewBox="0 0 530.25 71.73"><defs><style>.cls-1{fill:#fff;}</style></defs><path class="cls-1" d="m16.94,58.57l-6.6-40.5h4.7l4.35,29.1,5.45-28.95h4l5.5,29.1,4.25-29.25h4.6l-6.5,40.5h-4.1l-5.65-30-5.7,30h-4.3Z"/><path class="cls-1" d="m48.14,58.57V18.07h15.7v4.2h-10.05v13.4h8.15v4h-8.15v14.85h10.15v4.05h-15.8Z"/><path class="cls-1" d="m78.49,58.57l.7-40.5h7.65l5.75,28.05,6-28.05h7.4l.75,40.5h-5.5l-.6-28.15-5.75,28.15h-4.45l-5.85-28.25-.55,28.25h-5.55Z"/><path class="cls-1" d="m110.69,58.57l8.1-40.5h7.9l8.1,40.5h-6.85l-1.6-9.35h-7.05l-1.65,9.35h-6.95Zm9.35-14.05h5.5l-2.75-17-2.75,17Z"/><path class="cls-1" d="m138.63,58.57V18.07h7.4v17.8l8-17.8h7.05l-7.75,18.1,8.55,22.4h-7.35l-6.8-18.45-1.7,3.1v15.35h-7.4Z"/><path class="cls-1" d="m164.79,58.57V18.07h17v5.2h-9.6v11.65h7.55v5.15h-7.55v13.4h9.7v5.1h-17.1Z"/><path class="cls-1" d="m202.38,58.57V23.52h-6.45v-5.45h20.2v5.45h-6.35v35.05h-7.4Z"/><path class="cls-1" d="m219.83,58.57V18.07h9.7c2.73,0,5.04.33,6.92.97,1.88.65,3.32,1.76,4.3,3.33.98,1.57,1.48,3.7,1.48,6.4,0,1.63-.15,3.1-.45,4.4-.3,1.3-.81,2.41-1.53,3.33-.72.92-1.71,1.62-2.97,2.12l5.65,19.95h-7.4l-4.9-18.55h-3.4v18.55h-7.4Zm7.4-23.2h2.3c1.43,0,2.58-.21,3.42-.62.85-.42,1.46-1.08,1.83-2,.37-.92.55-2.09.55-3.52,0-2.03-.38-3.56-1.12-4.58s-2.17-1.53-4.27-1.53h-2.7v12.25Z"/><path class="cls-1" d="m245.83,58.57l8.1-40.5h7.9l8.1,40.5h-6.85l-1.6-9.35h-7.05l-1.65,9.35h-6.95Zm9.35-14.05h5.5l-2.75-17-2.75,17Z"/><path class="cls-1" d="m278.68,58.57l-8.15-40.5h6.55l5.35,28.65,5-28.65h6.7l-8.15,40.5h-7.3Z"/><path class="cls-1" d="m298.28,58.57V18.07h17v5.2h-9.6v11.65h7.55v5.15h-7.55v13.4h9.7v5.1h-17.1Z"/><path class="cls-1" d="m319.68,58.57V18.07h7.4v35.4h9.8v5.1h-17.2Z"/><path class="cls-1" d="m352.58,58.57l.7-40.5h7.65l5.75,28.05,6-28.05h7.4l.75,40.5h-5.5l-.6-28.15-5.75,28.15h-4.45l-5.85-28.25-.55,28.25h-5.55Z"/><path class="cls-1" d="m384.78,58.57l8.1-40.5h7.9l8.1,40.5h-6.85l-1.6-9.35h-7.05l-1.65,9.35h-6.95Zm9.35-14.05h5.5l-2.75-17-2.75,17Z"/><path class="cls-1" d="m415.08,58.57V23.52h-6.45v-5.45h20.2v5.45h-6.35v35.05h-7.4Z"/><path class="cls-1" d="m436.58,58.57V23.52h-6.45v-5.45h20.2v5.45h-6.35v35.05h-7.4Z"/><path class="cls-1" d="m454.03,58.57V18.07h17v5.2h-9.6v11.65h7.55v5.15h-7.55v13.4h9.7v5.1h-17.1Z"/><path class="cls-1" d="m475.43,58.57V18.07h9.7c2.73,0,5.04.33,6.92.97,1.88.65,3.32,1.76,4.3,3.33.98,1.57,1.48,3.7,1.48,6.4,0,1.63-.15,3.1-.45,4.4-.3,1.3-.81,2.41-1.53,3.33-.72.92-1.71,1.62-2.97,2.12l5.65,19.95h-7.4l-4.9-18.55h-3.4v18.55h-7.4Zm7.4-23.2h2.3c1.43,0,2.58-.21,3.42-.62.85-.42,1.46-1.08,1.83-2,.37-.92.55-2.09.55-3.52,0-2.03-.38-3.56-1.12-4.58s-2.17-1.53-4.27-1.53h-2.7v12.25Z"/><path class="cls-1" d="m513.4,42.33c-2.06,0-3.82-.35-5.29-1.06-1.47-.71-2.67-1.66-3.6-2.84s-1.62-2.5-2.05-3.95c-.44-1.45-.66-2.89-.66-4.33s.22-2.93.66-4.37c.44-1.44,1.12-2.74,2.05-3.92s2.13-2.12,3.6-2.83c1.47-.71,3.23-1.06,5.29-1.06s3.82.35,5.29,1.06c1.47.71,2.67,1.65,3.6,2.83s1.62,2.48,2.06,3.92c.44,1.44.66,2.9.66,4.37s-.22,2.91-.66,4.34c-.44,1.44-1.12,2.75-2.04,3.94s-2.12,2.13-3.58,2.84c-1.47.71-3.24,1.06-5.32,1.06Zm0-1.52c1.71,0,3.19-.3,4.43-.9,1.24-.6,2.26-1.41,3.06-2.43s1.39-2.17,1.78-3.44.58-2.57.58-3.89-.19-2.65-.58-3.92c-.39-1.27-.98-2.41-1.78-3.42s-1.82-1.81-3.06-2.41c-1.24-.59-2.72-.89-4.43-.89s-3.22.3-4.46.89c-1.24.59-2.27,1.39-3.08,2.41-.81,1.01-1.4,2.15-1.79,3.42-.39,1.27-.58,2.57-.58,3.89s.19,2.64.58,3.91.99,2.41,1.79,3.44c.81,1.03,1.83,1.85,3.08,2.45,1.24.6,2.73.9,4.46.9Zm-4.69-3.24v-15.1h4.69c1.15,0,2.1.15,2.86.45.76.3,1.33.76,1.72,1.37s.58,1.42.58,2.43c0,.93-.18,1.69-.55,2.27s-.95,1.06-1.75,1.43l2.68,7.14h-3.44l-2.21-6.5h-1.28v6.5h-3.29Zm3.29-8.19h.79c1.01,0,1.69-.21,2.04-.63s.52-1.05.52-1.91c0-.74-.16-1.31-.47-1.72s-.84-.61-1.6-.61h-1.28v4.87Z"/></svg>